<svg width="512" height="512" viewBox="0 0 512 512" fill="none" xmlns="http://www.w3.org/2000/svg">
<rect width="512" height="512" rx="256" fill="white"/>
<path d="M201.41 307.482C201.309 254.928 161.912 243.032 147.097 237.822C146.652 237.665 146.355 238.137 146.69 238.468C154.759 246.455 172.028 264.165 167.248 306.647C166.087 316.959 155.261 377.035 221.214 394.445C221.217 394.446 221.221 394.445 221.223 394.443C221.229 394.439 221.229 394.431 221.224 394.426C188.656 365.103 201.435 320.483 201.41 307.482Z" fill="url(#paint0_linear_30_327)"/>
<path d="M387.645 130.07C389.571 129.536 388.853 129.628 390.5 129.332C376.205 141.372 339.142 169.315 338.324 248.089C338.135 266.26 344.04 372.605 226.709 395.338L226.685 395.317C289.04 347.842 276.487 268.292 279.289 245.553C290.615 153.648 361.014 137.449 387.645 130.07Z" fill="url(#paint1_linear_30_327)"/>
<defs>
<linearGradient id="paint0_linear_30_327" x1="134.527" y1="244.869" x2="232.424" y2="386.713" gradientUnits="userSpaceOnUse">
<stop stop-color="#392CC9"/>
<stop offset="1" stop-color="#8178E7"/>
</linearGradient>
<linearGradient id="paint1_linear_30_327" x1="407.804" y1="143.866" x2="209.045" y2="380.501" gradientUnits="userSpaceOnUse">
<stop stop-color="#392CC9"/>
<stop offset="1" stop-color="#8178E7"/>
</linearGradient>
</defs>
</svg>
