<?xml version="1.0" standalone="no"?>
<!DOCTYPE svg PUBLIC "-//W3C//DTD SVG 20010904//EN"
 "http://www.w3.org/TR/2001/REC-SVG-20010904/DTD/svg10.dtd">
<svg version="1.0" xmlns="http://www.w3.org/2000/svg"
 width="700.000000pt" height="700.000000pt" viewBox="0 0 700.000000 700.000000"
 preserveAspectRatio="xMidYMid meet">
<metadata>
Created by potrace 1.14, written by Peter Selinger 2001-2017
</metadata>
<g transform="translate(0.000000,700.000000) scale(0.100000,-0.100000)"
fill="#000000" stroke="none">
<path d="M5170 5186 c-279 -84 -448 -158 -621 -275 -339 -228 -559 -542 -668
-951 -54 -205 -61 -264 -71 -610 -5 -179 -16 -383 -24 -453 -70 -557 -271
-956 -639 -1265 -21 -18 -34 -32 -30 -32 22 0 220 53 303 80 126 42 339 145
437 210 335 224 560 537 677 942 61 211 84 391 92 708 9 390 41 615 124 861
96 289 259 542 467 724 110 96 119 105 108 104 -6 0 -75 -20 -155 -43z"/>
<path d="M2048 3695 c101 -111 176 -248 212 -389 38 -149 45 -294 25 -499 -23
-231 -17 -392 19 -530 66 -257 225 -451 471 -575 57 -28 235 -95 235 -88 0 2
-18 23 -41 47 -213 229 -288 559 -228 999 15 107 7 302 -16 400 -40 170 -106
290 -225 410 -101 102 -200 166 -348 225 -166 67 -165 67 -104 0z"/>
</g>
</svg>
